<svg xmlns="http://www.w3.org/2000/svg" viewBox="0 0 77.7 78.12"><title>icon-donate-100</title><g id="Layer_2" data-name="Layer 2"><g id="Layer_1-2" data-name="Layer 1"><path d="M77.7,45a.87.87,0,0,0-.58-.92Q58.28,34.45,39.45,24.8a.93.93,0,0,0-1,0L1.91,43.52c-.61.32-1.44.52-1.75,1S.07,45.79.07,46.44s0,1.24,0,1.94l7-3.59V78.12h3.69v-.68c0-5.53,0-28.47,0-34a.73.73,0,0,1,.45-.77q13.63-6.95,27.26-13.93a.93.93,0,0,1,1,0q13.62,7,27.26,13.92a.74.74,0,0,1,.47.77c0,5.55,0,28.5,0,34.05v.63h3.71V44.81l6.8,3.46C77.69,47.1,77.66,46,77.7,45Z"/><path d="M37.17,40.42v3.9H33.3v3h3.89v3.89h3.05V47.32h3.88v-3H40.21V40.42Z"/><path d="M7.49,20.31A10.6,10.6,0,0,0,13,21.83a11,11,0,0,0,2.11-.2,10.65,10.65,0,0,0,5.4-2.74,10.89,10.89,0,0,0,3.44-7.25,1.52,1.52,0,0,0-1-1.62h0a1.5,1.5,0,0,0-1.8.61c-.14.19-.28.38-.43.56a4.93,4.93,0,0,1-5.55,1.33,4.84,4.84,0,0,1-2.41-2,4.77,4.77,0,0,1-.66-3.09,4.79,4.79,0,0,1,1.33-2.87,5.13,5.13,0,0,1,2.17-1.33,1.48,1.48,0,0,0-.18-2.9C15,.2,14.56.12,14.14.07A10.08,10.08,0,0,0,10.51.3a10.93,10.93,0,0,0-8.4,10.63,10.43,10.43,0,0,0,.47,3.12A10.67,10.67,0,0,0,7.49,20.31ZM5.14,10.11A7.92,7.92,0,0,1,10.4,3.48,7.93,7.93,0,0,0,9.08,7a7.69,7.69,0,0,0,1.57,5.82,8,8,0,0,0,8.8,2.73A7.9,7.9,0,0,1,5.14,10.11Z"/><path d="M34,63.77v5.65c0,.69.28,1,1,1H53.54a.75.75,0,0,0,.71-.73c0-1.46,0-2.93,0-4.4a2.25,2.25,0,0,0-1.82-2.32,4.7,4.7,0,0,0-.92-.09H34.91C34.27,62.84,34,63.13,34,63.77Z"/><path d="M57,66a.69.69,0,0,0-.6-.59.76.76,0,0,0-.95.84c0,2,0,3.93,0,5.89v.32H25.54V61.92c0-.12,0-.25,0-.37a.73.73,0,0,0-.71-.67c-.54,0-.85.3-.85.89V77.23a1.93,1.93,0,0,0,0,.24.79.79,0,0,0,1.49.2,1.49,1.49,0,0,0,.07-.52c0-.93,0-1.87,0-2.8,0-.09,0-.19,0-.28H55.42c0,1.05,0,2.08,0,3.12a1.65,1.65,0,0,0,0,.44.74.74,0,0,0,.83.49.71.71,0,0,0,.67-.61,2.61,2.61,0,0,0,0-.4V66.4A2.61,2.61,0,0,0,57,66Z"/><path d="M30.09,67.87a2.75,2.75,0,1,0-2.75-2.78A2.77,2.77,0,0,0,30.09,67.87Z"/><path d="M26.72,69.72a.74.74,0,0,0,.82.67h5.22a.75.75,0,0,0,.74-.8.74.74,0,0,0-.76-.76H27.49A.75.75,0,0,0,26.72,69.72Z"/></g></g></svg>