<svg xmlns="http://www.w3.org/2000/svg" viewBox="0 0 55.28 65.61"><title>icon-donate-10</title><g id="Layer_2" data-name="Layer 2"><g id="Layer_1-2" data-name="Layer 1"><path d="M7.79,59.48c-1.17,0-1.63-.45-1.63-1.61V13.36c0-.15,0-.3,0-.46h.5c2,0,3.91,0,5.86,0a3.89,3.89,0,0,0,3.95-4c0-1.95,0-3.9,0-5.85V2.59H46.1A1.26,1.26,0,0,1,47.54,4V15.48h2.57a2.37,2.37,0,0,0,0-.24c0-3.74,0-7.48,0-11.21a4.45,4.45,0,0,0-.4-1.77A3.82,3.82,0,0,0,45.93,0H15.56a1.89,1.89,0,0,0-1.42.57Q7.36,7.36.55,14.14A1.77,1.77,0,0,0,0,15.48c0,1.81,0,3.63,0,5.44Q0,41.23,0,61.54A4.6,4.6,0,0,0,.41,63.4,3.66,3.66,0,0,0,4,65.61q9.39,0,18.78,0l.39,0V63.08h-19c-1.14,0-1.6-.46-1.6-1.6V17c0-.14,0-.29,0-.44h1V20.3q0,18.79,0,37.57A4.94,4.94,0,0,0,4,59.81,3.73,3.73,0,0,0,7.72,62H26.8V59.48h-19ZM13.92,4.59V6.76c0,.76,0,1.53,0,2.29a1.21,1.21,0,0,1-1.23,1.27c-1.48,0-2.95,0-4.43,0H8.2Z"/><path d="M55.27,22.84c0-.42,0-.83,0-1.25a3.74,3.74,0,0,0-3.42-3.42c-1.82-.06-3.65-.06-5.47-.05a3.77,3.77,0,0,0-3.1,1.45,4.17,4.17,0,0,0-.85,2.73c0,5.93,0,11.85,0,17.78s0,11.88,0,17.82A3.89,3.89,0,0,0,46.19,62c1.77,0,3.55,0,5.32,0a3.7,3.7,0,0,0,3.05-1.61,4.27,4.27,0,0,0,.72-2.62Q55.27,40.31,55.27,22.84Zm-2.56,35a3.54,3.54,0,0,1,0,.46,1.19,1.19,0,0,1-1.16,1.11q-2.7,0-5.4,0A1.16,1.16,0,0,1,45,58.35a14.26,14.26,0,0,1,0-1.47H50.1V54.31H45V51.73h3.8V49.12H45V46.54H50.1V44H45V41.38h3.8V38.79H45V36.2h5.12V33.61H45V31h3.83V28.44H45V25.86H50.1V23.27H45a14.85,14.85,0,0,1,0-1.5,1.21,1.21,0,0,1,1.2-1.08c1.76,0,3.52,0,5.27,0a1.23,1.23,0,0,1,1.24,1.22c0,.12,0,.23,0,.34Z"/><path d="M39.58,26.48c-1.24-2.52-2.49-5-3.78-7.54a1.65,1.65,0,0,0-.79-.68,1.25,1.25,0,0,0-1.62.74c-1.25,2.48-2.5,5-3.73,7.45a2.12,2.12,0,0,0-.19.93q0,14.67,0,29.36a6,6,0,0,0,.17,1.4,5.13,5.13,0,0,0,10.11-1.33q0-7.32,0-14.64t0-14.81A2,2,0,0,0,39.58,26.48Zm-5-4.2c.6,1.21,1.18,2.36,1.78,3.55H32.84Zm-2.55,6.19h5.11V47.8H32.06Zm5.11,22V53h-5.1V50.44Zm-.62,8.13a2.64,2.64,0,0,1-2.78.74,2.56,2.56,0,0,1-1.71-2.17c0-.5,0-1,0-1.56h4.79c.12,0,.33.12.33.19A3.72,3.72,0,0,1,36.55,58.57Z"/><polygon points="19.77 50.69 19.77 48.14 22.32 48.14 22.32 46.23 19.77 46.23 19.77 43.69 17.86 43.69 17.86 46.23 15.32 46.23 15.32 48.14 17.86 48.14 17.86 50.69 19.77 50.69"/><polygon points="17.02 39.06 18.82 37.26 20.62 39.06 21.97 37.71 20.17 35.91 21.97 34.11 20.62 32.76 18.82 34.56 17.02 32.76 15.67 34.11 17.47 35.91 15.67 37.71 17.02 39.06"/><path d="M24.36,8.27l-3,7h1.56l.64-1.57h3l.64,1.57h1.61l-3-7Zm-.24,4.11.93-2.26L26,12.38Z"/><path d="M29.71,8v7.29h1.51v-.7a2.06,2.06,0,0,0,1.67.8,2.51,2.51,0,0,0,2.44-2.77v0a2.52,2.52,0,0,0-2.44-2.76,2,2,0,0,0-1.67.87V8Zm2.79,3.13a1.36,1.36,0,0,1,1.31,1.47v0a1.32,1.32,0,1,1-2.61,0v0A1.35,1.35,0,0,1,32.5,11.15Z"/><path d="M39.05,14.12a1.37,1.37,0,0,1-1.36-1.48v0A1.37,1.37,0,0,1,39,11.16a1.57,1.57,0,0,1,1.22.59l.93-1A2.64,2.64,0,0,0,39,9.86a2.74,2.74,0,0,0-2.81,2.78v0A2.74,2.74,0,0,0,39,15.43a2.7,2.7,0,0,0,2.19-1l-.89-.9A1.7,1.7,0,0,1,39.05,14.12Z"/><rect x="14.32" y="24.96" width="8" height="1.91"/><circle cx="18.32" cy="28.68" r="1"/><circle cx="18.32" cy="23.14" r="1"/></g></g></svg>