<svg xmlns="http://www.w3.org/2000/svg" viewBox="0 0 111.16 73.19"><title>icon-donate-2</title><g id="Layer_2" data-name="Layer 2"><g id="Layer_1-2" data-name="Layer 1"><g id="s4UEoh.tif"><path d="M61.13,52.35l6.39-.49c3.69-.31,6.6-2.3,9.45-4.42a46.13,46.13,0,0,1,6.62-4.62c4.27-2.17,8.18-.7,10.57,2.7A8.45,8.45,0,0,1,95.4,52a15.14,15.14,0,0,1-6.22,9.91A41.89,41.89,0,0,1,76,68.46a46.55,46.55,0,0,1-13.42,1.79,47.32,47.32,0,0,1-15-2.14,12.38,12.38,0,0,0-4-.56q-9.82,0-19.65,0c-1.53,0-2-.54-1.69-2l.93-4.79c0-.23,0-.46.07-.72a27.85,27.85,0,0,1-6.72-3.6A21.12,21.12,0,0,1,8.32,44a59.37,59.37,0,0,1-1-7.06c-.11-1,.47-1.56,1.49-1.56h5a20.87,20.87,0,0,1-1.09-1.83,5.49,5.49,0,0,1,.11-4.9,10.73,10.73,0,0,1,2.65-3.6,4.24,4.24,0,0,1,4.94-.85c.18-.62.34-1.23.54-1.82a5.28,5.28,0,0,1,6.51-3.82c1.31.28,2.57.79,3.91,1.21.9-3.23,3.3-4.54,6.66-4.46,3.57.09,5.82,1.83,6.66,5.5.88-1.29,1.6-2.45,2.42-3.53a50.09,50.09,0,0,1,3.39-4.14,6.18,6.18,0,0,1,6.71-1.61c.5.14,1,.34,1.56.54.14-1.2.28-2.36.42-3.51.28-2.44.56-4.89.86-7.33A1.26,1.26,0,0,1,61,0a1.27,1.27,0,0,1,1.41.62,1.82,1.82,0,0,1,.16,1c-.28,2.7-.59,5.41-.89,8.11,0,.18,0,.36,0,.72.8-1.12,1.52-2.11,2.24-3.1A3,3,0,0,1,64.22,7a1.29,1.29,0,0,1,1.89-.25,1.4,1.4,0,0,1,0,1.88L62,14.19c-.05.07-.1.15,0,.17.53,1.26,1.16,2.49,1.56,3.79.69,2.22.11,4.34-.76,6.4a33.44,33.44,0,0,1-4.93,7.81c-.67.85-1.38,1.67-2.17,2.63h1.13c2.44,0,4.88,0,7.32,0A1.62,1.62,0,0,1,66,36.89a38.39,38.39,0,0,1-1.28,7.68,23.31,23.31,0,0,1-3.33,7,6.06,6.06,0,0,0-.35.53Zm2.22-14.79c-17.93.08-35.76-.12-53.6.17A27.8,27.8,0,0,0,11.56,46,19.27,19.27,0,0,0,18,54.37a26,26,0,0,0,9.48,4.33,37.13,37.13,0,0,0,10.31,1.21,4,4,0,0,0-.13-.57,8.16,8.16,0,0,1,.1-6.6c1.55-3.54,4.16-5.43,8.26-4.86a23.86,23.86,0,0,1,6.39,2.21,40.17,40.17,0,0,0,4.86,1.63.9.9,0,0,0,.77-.25,17.57,17.57,0,0,0,3.19-4.95A27.61,27.61,0,0,0,63.35,37.56Zm.48,30.16c1.34-.13,3.83-.22,6.27-.62a37.83,37.83,0,0,0,18.25-8A11.23,11.23,0,0,0,92.86,50c0-3.7-4-7.05-8-4.93A57.51,57.51,0,0,0,78,49.78c-2.45,1.77-4.92,3.54-7.93,4.13a43.29,43.29,0,0,1-7.09.84,25.58,25.58,0,0,1-12.4-2.64,25.56,25.56,0,0,0-4.39-1.66,4.63,4.63,0,0,0-4.93,1,6.64,6.64,0,0,0-1.85,4.16c-.23,2.7,1.33,4.6,3,6.38A14.53,14.53,0,0,0,49.25,66,55.86,55.86,0,0,0,63.83,67.72Zm-38.93-33c-.71-1.14-1.35-2.15-1.95-3.17a1.29,1.29,0,0,1,.79-2.07,1.21,1.21,0,0,1,1.38.65q1.26,2,2.53,4.07c.13.21.35.5.53.5,1.76,0,3.53,0,5.28,0l.11-.5c.34-2.07.66-4.14,1-6.21a1.41,1.41,0,0,1,1.58-1.3,1.44,1.44,0,0,1,1,1.76c-.13.77-.27,1.55-.4,2.33-.23,1.33-.45,2.66-.69,4.07,1.27,0,2.46,0,3.65,0,.16,0,.38-.26.45-.44a22.64,22.64,0,0,0,.8-2.22,26.18,26.18,0,0,0,1.43-9.85,5,5,0,0,0-1.87-4,5.49,5.49,0,0,0-4.66-.67,3,3,0,0,0-1.46,1.07,5,5,0,0,0-.67,4.09A13.23,13.23,0,0,1,34,25.07a1.21,1.21,0,0,1-2.39.19A11.06,11.06,0,0,1,31.32,24a2.77,2.77,0,0,0-1.6-2.3,12.39,12.39,0,0,0-3.32-1,2.58,2.58,0,0,0-2.92,1.67,9.6,9.6,0,0,0-.73,4.55,1.09,1.09,0,0,1-1,1.19,1.28,1.28,0,0,1-1.47-.72c-1.3-2-2.35-1.68-3.67-.39a9.57,9.57,0,0,0-1.33,1.76,3.92,3.92,0,0,0,2.9,5.92C20.37,34.84,22.57,34.71,24.9,34.71ZM54,32.91a7,7,0,0,0-.62-.51c-1.19-.73-2.39-1.45-3.59-2.16-.83-.48-1.05-1-.68-1.75s1-.89,1.82-.39C52.47,29,54,30,55.64,31c0,0,0,0,.08-.05a34.59,34.59,0,0,0,5-8.07,6.62,6.62,0,0,0-3.12-8.52c-1.67-.85-3.41-1.17-5,.11A13.77,13.77,0,0,0,51,16.12c-.43.49-.81,1-1.26,1.61.42.15.74.26,1,.38a14.69,14.69,0,0,1,5.78,4.09,1.23,1.23,0,0,1,0,1.74,1.27,1.27,0,0,1-1.75-.08c-.32-.28-.61-.6-.93-.88a10.09,10.09,0,0,0-5.25-2.86.78.78,0,0,0-.91.44c-.44.74-.92,1.44-1.35,2.18a9,9,0,0,0-1.55,3.84,36.69,36.69,0,0,1-1,5.26c-.24,1.05-.61,2.07-.93,3.11h9.58Zm-29,32.18H41.8c-.7-.79-1.36-1.47-1.95-2.2a1.41,1.41,0,0,0-1.29-.58,37.55,37.55,0,0,1-8.13-.5c-1.52-.29-3-.62-4.62-1Z"/><path d="M55.21,73.17q-25.32,0-50.64,0a1.87,1.87,0,0,1-2-1.23C1.85,70.38,1,68.87.25,67.33c-.43-.86-.31-1.42.37-1.77a1.21,1.21,0,0,1,1.81.67c.64,1.26,1.29,2.51,1.88,3.79a.89.89,0,0,0,1,.62,3.09,3.09,0,0,1,.43,0q49.49,0,99,0a1.75,1.75,0,0,0,1.76-1c.69-1.19,1.5-2.32,2.27-3.46a1.26,1.26,0,1,1,2.08,1.39c-1,1.54-2,3.05-3,4.61a1.81,1.81,0,0,1-1.76,1Q80.68,73.16,55.21,73.17Z"/></g></g></g></svg>