<svg xmlns="http://www.w3.org/2000/svg" viewBox="0 0 76.19 79.61"><title>icon-donate-250</title><g id="Layer_2" data-name="Layer 2"><g id="Layer_1-2" data-name="Layer 1"><g id="u6irtQ.tif"><path d="M11.82,49.43V47.29a4.19,4.19,0,0,1,4.45-4.43h7.25A4.21,4.21,0,0,1,28,47.29c0,.68,0,1.36,0,2.14h10a4.15,4.15,0,0,1,.61,0,1,1,0,0,1,1,1.12q0,12.51,0,25c0,.89-.39,1.27-1.27,1.32H1.46C.38,76.88,0,76.51,0,75.42V50.63a1.16,1.16,0,0,1,1.14-1.19,5,5,0,0,1,.55,0H11.82Zm25.34,9.14a1.49,1.49,0,0,0-.22,0q-6.36,2.61-12.71,5.25a.68.68,0,0,0-.33.52c0,.71,0,1.44,0,2.15s-.42,1.27-1.21,1.29c-1.94,0-3.88,0-5.81,0a1.07,1.07,0,0,1-1.18-1.18,20,20,0,0,1,0-2,.59.59,0,0,0-.47-.67L3.12,59.49c-.18-.07-.37-.12-.58-.19V74.39H37.16ZM23.89,61.35,37,55.92V52H2.49c0,1.35,0,2.67,0,4a.68.68,0,0,0,.52.76c3.84,1.43,7.68,2.89,11.51,4.34l1.07.4a.54.54,0,0,0,.06-.16c0-.48,0-1,0-1.44,0-1,.42-1.35,1.37-1.36H22.5c.94,0,1.37.47,1.39,1.42Zm1.44-12.06c0-.9.06-1.77,0-2.62a1.61,1.61,0,0,0-1.67-1.46H15.91a1.65,1.65,0,0,0-1.7,1.38c-.14.88-.15,1.77-.21,2.7ZM18.29,61v4.27h3.17V61Z"/><path d="M57,42.73,61.9,52Q66.76,61,71.61,70.1a6.28,6.28,0,0,1-9.07,8.32,7,7,0,0,1-2.26-2.94Q54.45,61.36,48.6,47.25c-.19-.46-.38-.51-.85-.41a23.18,23.18,0,0,1-19-4,22.84,22.84,0,0,1-9.48-15.64A23.48,23.48,0,0,1,32.46,2.39a23.28,23.28,0,0,1,20.92.19c.41.2.81.44,1.2.68A1.28,1.28,0,1,1,53.36,5.5,20.1,20.1,0,0,0,47.9,3.28,20.51,20.51,0,0,0,29.86,7,20.42,20.42,0,0,0,21.7,26.14,20.29,20.29,0,0,0,30,40.63a20.93,20.93,0,0,0,9.51,4.06,20.69,20.69,0,0,0,8.61-.41l.58-.15c.89-.19,1.37.08,1.75,1Q53.74,53,57,60.86q2.8,6.8,5.63,13.58a5,5,0,0,0,2,2.33,3.65,3.65,0,0,0,4.61-1,3.79,3.79,0,0,0,.27-4.4L58.6,51.13q-2.16-4-4.3-8a1.24,1.24,0,0,1,.39-1.87l2.14-1.67a1.22,1.22,0,0,1,1.73.15,1.11,1.11,0,0,1-.07,1.63C58,41.85,57.49,42.26,57,42.73Z"/><path d="M67,34.24h3.48V16c0-1,.55-1.57,1.49-1.42a1.05,1.05,0,0,1,1,.93,5.63,5.63,0,0,1,0,.82q0,8.61,0,17.21v.78c.64,0,1.22,0,1.81,0A1.31,1.31,0,0,1,76.1,36a1.58,1.58,0,0,1-.67.66,1.82,1.82,0,0,1-.81.12H33.18c-.57,0-1.13-.05-1.44-.62a1.23,1.23,0,0,1,1-1.88c.6,0,1.21,0,1.88,0,0-.25,0-.46,0-.67V27.4a1.2,1.2,0,0,1,1.16-1.34,1.23,1.23,0,0,1,1.33,1.35c0,2.07,0,4.13,0,6.2v.62h3.44V23.59c0-.8.25-1.22.81-1.42a1.2,1.2,0,0,1,1.68,1,4.1,4.1,0,0,1,0,.61V34.23h3.47v-15c0-1.05.45-1.53,1.34-1.48a1.08,1.08,0,0,1,1.12.95,3.35,3.35,0,0,1,0,.71V34.22h3.46v-.57q0-3.87,0-7.74c0-1,.49-1.52,1.38-1.43.73.06,1.11.51,1.12,1.37,0,1.31,0,2.62,0,3.93v4.45h3.47V26.72c0-.88.45-1.4,1.21-1.41s1.26.5,1.26,1.4c0,2.27,0,4.54,0,6.81v.7h3.49v-.66c0-4.8,0-9.59,0-14.39,0-1,.52-1.52,1.45-1.41a1,1,0,0,1,1,.89,3.78,3.78,0,0,1,.06.82V34.24Z"/><path d="M69.22,10l-7.41,4.2a3.78,3.78,0,0,1-1,3.37,3.6,3.6,0,0,1-3.93,1.06,3.7,3.7,0,0,1-2.65-3.16.7.7,0,0,0-.55-.68c-1.24-.37-2.46-.77-3.68-1.19a.52.52,0,0,0-.66.16,3.76,3.76,0,0,1-4.7.66.63.63,0,0,0-.57,0c-1.49,1-3,2.13-4.43,3.22a.71.71,0,0,0-.21.54,3.85,3.85,0,0,1-3.63,4.58,4,4,0,0,1-3.7-2.34,3.85,3.85,0,0,1,.94-4.3,3.79,3.79,0,0,1,4.87-.3c1.57-1.15,3.15-2.28,4.7-3.47.17-.13.19-.56.17-.84a3.74,3.74,0,0,1,1.44-3.41A3.58,3.58,0,0,1,48,7.59a3.72,3.72,0,0,1,2.38,3.09.64.64,0,0,0,.52.63c1.25.39,2.49.79,3.73,1.2a.52.52,0,0,0,.65-.17,3.73,3.73,0,0,1,5-.46.61.61,0,0,0,.78,0Q64.3,10,67.53,8.19a.65.65,0,0,0,.38-.78,3.87,3.87,0,0,1,2.48-4,3.83,3.83,0,0,1,4.29,6A3.89,3.89,0,0,1,69.22,10ZM46.61,9.78A1.36,1.36,0,1,0,48,11.14,1.4,1.4,0,0,0,46.61,9.78Zm11.52,3.87A1.39,1.39,0,0,0,56.69,15,1.42,1.42,0,0,0,58,16.36a1.34,1.34,0,0,0,1.39-1.27A1.31,1.31,0,0,0,58.13,13.65ZM35.68,20.32a1.35,1.35,0,0,0,0-2.69,1.35,1.35,0,1,0,0,2.69ZM73.08,7A1.34,1.34,0,0,0,71.7,5.69a1.35,1.35,0,1,0,.09,2.7A1.32,1.32,0,0,0,73.08,7Z"/><path d="M65.23,75a1.25,1.25,0,0,1-1.31-1,1.07,1.07,0,0,1,.59-1.24c.71-.35,1.43-.68,2.17-1a1.22,1.22,0,1,1,.92,2.25c-.62.29-1.24.56-1.87.82A4.71,4.71,0,0,1,65.23,75Z"/><path d="M62.4,60.92a1.2,1.2,0,0,1,1.3.86,1.18,1.18,0,0,1-.59,1.41,22.23,22.23,0,0,1-2.12.92,1.18,1.18,0,0,1-1.56-.63,1.23,1.23,0,0,1,.68-1.64c.62-.28,1.24-.55,1.87-.81A2.39,2.39,0,0,1,62.4,60.92Z"/><path d="M66.09,67.62c-.24.3-.42.71-.72.88a15.56,15.56,0,0,1-2.17,1,1.18,1.18,0,0,1-1.55-.67,1.21,1.21,0,0,1,.69-1.59c.72-.29,1.44-.58,2.17-.82A1.24,1.24,0,0,1,66.09,67.62Z"/></g></g></g></svg>