<svg xmlns="http://www.w3.org/2000/svg" viewBox="0 0 77.83 76.42"><title>icon-donate-50</title><g id="Layer_2" data-name="Layer 2"><g id="Layer_1-2" data-name="Layer 1"><path d="M15.56,51.86c2.08,0,4.17,0,6.25,0,.82,0,1-.34,1-1,0-1.46,0-2.92,0-4.37s0-3.09,0-4.63c0-.69-.2-1-.92-1-2.08,0-4.17,0-6.25,0-.73,0-1.06.21-1.05,1q0,4.5,0,9C14.53,51.61,14.8,51.88,15.56,51.86Zm1.77-4.42c.11-1.18,0-2.39,0-3.6.24-.11.31-.17.38-.17,2.33-.15,2.33-.15,2.33,2.16,0,.62,0,1.25,0,1.86.08.94-.21,1.26-1.23,1.33C17.52,49.1,17.2,48.67,17.33,47.44Z"/><path d="M14.55,18.2c0,.66.28,1,1,1,2.09,0,4.17,0,6.26,0,.78,0,1-.34,1-1.07,0-1.45,0-2.91,0-4.37s0-3.09,0-4.63c0-.71-.28-1-1-1-2.08,0-4.17,0-6.25,0-.67,0-1,.24-1,.94Q14.57,13.63,14.55,18.2Zm4-7.36c.61,0,1.48-.27,1.52.78.05,1.37,0,2.74,0,4.11,0,.22-.43.57-.69.61a14.26,14.26,0,0,1-2,0c0-1.7,0-3.19,0-4.68C17.33,10.81,17.93,10.81,18.52,10.84Z"/><path d="M15.51,35.52q3.14,0,6.25,0c.75,0,1-.27,1-1-.05-1.46,0-2.91,0-4.37s0-3,0-4.5c0-.8-.26-1.14-1.07-1.13q-3.06,0-6.12,0c-.76,0-1,.35-1,1.06q0,4.5,0,9C14.55,35.23,14.81,35.52,15.51,35.52Zm1.84-8.05a1.87,1.87,0,0,1,.36-.17c2.35-.22,2.35-.21,2.35,2.11v1.87c0,1.49-.13,1.57-1.66,1.55-.71,0-1.08-.22-1.06-1C17.37,30.39,17.35,29,17.35,27.47Z"/><path d="M31.91,19.16c2.08,0,4.17,0,6.25,0,.81,0,1-.38,1-1.08,0-1.5,0-3,0-4.5s0-3,0-4.49c0-.69-.21-1-.92-1q-3.12,0-6.25,0c-.67,0-1,.23-1,1q0,4.54,0,9.11C31,18.87,31.21,19.17,31.91,19.16Zm1.85-7.67c.07-1,1-.65,1.59-.61.34,0,.93.47.94.75.1,1.52.05,3,.05,4.69H33.73C33.73,14.69,33.65,13.08,33.76,11.49Z"/><path d="M22.75,62.67c0-1.46,0-2.92,0-4.37,0-.67-.14-1-.89-1-2.12,0-4.25,0-6.37,0-.72,0-1,.27-1,.95q0,4.44,0,8.88c0,.72.27,1,1,1,2,0,4.09,0,6.13,0,.84,0,1.07-.33,1.05-1.12C22.72,65.59,22.75,64.13,22.75,62.67Zm-2.73,2a1,1,0,0,1-.67.65,13.08,13.08,0,0,1-2,0c0-1.65-.05-3.09,0-4.53a1.18,1.18,0,0,1,.86-.8c.64,0,1.68-.52,1.79.68A29.22,29.22,0,0,1,20,64.71Z"/><path d="M44.76,40.9c3.21,0,6.4,0,9.59,0a2.06,2.06,0,0,0,.54-.05h.67V38.12h-11v2.75h.21Z"/><path d="M77.83,72.91h-5.9a2.88,2.88,0,0,1-.08-.78c.05-11.8,0-23.6,0-35.4a2.24,2.24,0,0,0-.77-2Q60.93,26.38,50.8,17.94a1,1,0,0,0-1.51,0c-.52.48-1.1.89-1.93,1.54,0-.86-.08-1.3-.08-1.74V1.7c0-1.69,0-1.7-1.7-1.7H8.17C6.46,0,6.46,0,6.46,1.71V71.27c0,.41,0,.83,0,1.25a1.64,1.64,0,0,1,0,.39H0v3.5H76.67a2.8,2.8,0,0,0,.41,0h.75Zm-33.22-.52c0-3.67,0-7.34,0-11s0-7.42,0-11.13c0-.93.3-1.26,1.22-1.25q4.19.06,8.38,0c.94,0,1.33.29,1.33,1.29,0,7.38,0,14.76,0,22.14a2.33,2.33,0,0,1,0,.48H44.64A3.94,3.94,0,0,1,44.61,72.39Zm4.46-50.72a1.24,1.24,0,0,1,1.91,0q8.54,7.13,17.14,14.19a2.46,2.46,0,0,1,1,2.11q0,17.07,0,34.15a3,3,0,0,1-.08.8H58.3a2.64,2.64,0,0,1,0-.6c0-8.13,0-16.26,0-24.39,0-1.26-.34-1.66-1.62-1.64-4.5.07-9,0-13.51,0-1,0-1.36.25-1.35,1.34,0,8.13,0,16.26,0,24.39a3.75,3.75,0,0,1-.08.89H31a2.92,2.92,0,0,1-.05-.63c0-5.75,0-11.51,0-17.26s0-11.43,0-17.14a2.35,2.35,0,0,1,.94-2Q40.52,28.8,49.07,21.67ZM33.82,30.44V27.36h2.44C36.37,28.81,35.71,29.64,33.82,30.44ZM9.16,71.69V4.63c0-2.16-.13-1.84,1.9-1.84q16,0,31.9,0c1.63,0,1.63,0,1.63,1.64,0,5.38,0,10.76,0,16.14a2.29,2.29,0,0,1-1,2c-1.41,1.1-2.78,2.25-4.34,3.52L39,24.52c-2.44,0-4.89,0-7.34.05-.21,0-.58.63-.59,1-.06,1.92-.11,3.84,0,5.76a2.83,2.83,0,0,1-1.41,2.93A2.79,2.79,0,0,0,28.22,37c.05,11.67,0,23.35.06,35a3.3,3.3,0,0,1-.09.85h-19A7.94,7.94,0,0,1,9.16,71.69Z"/></g></g></svg>