<svg xmlns="http://www.w3.org/2000/svg" viewBox="0 0 85.82 80.21"><title>icon-donate-30</title><g id="Layer_2" data-name="Layer 2"><g id="Layer_1-2" data-name="Layer 1"><path d="M84.69,40.48,43.75,21.83a1.9,1.9,0,0,0-1.69,0L1.18,40.43c-.65.3-1.19.67-1.18,1.5s.54,1.15,1.17,1.44l5.4,2.47,11.72,5.35c.25.12.51.15.5.59,0,6,0,12,0,18a6.26,6.26,0,0,0,1.16,3.65,12.17,12.17,0,0,0,5.43,4.1A35.17,35.17,0,0,0,37.11,80a78.79,78.79,0,0,0,12.76-.1,39,39,0,0,0,9-1.79A15.44,15.44,0,0,0,64.44,75,6.54,6.54,0,0,0,67,70.12Q67,61,67,52a.7.7,0,0,1,.48-.76c2.5-1.13,5-2.28,7.5-3.42a3.52,3.52,0,0,1,.49-.16,1.68,1.68,0,0,1,.06.26q0,9.78,0,19.54a.78.78,0,0,1-.41.55,1.52,1.52,0,0,0-1,1.54,1.44,1.44,0,0,0,1.49,1.23c.75,0,1.5,0,2.25,0,1.17,0,1.78-.39,1.93-1.22s-.35-1.29-1.4-1.7c0-.09,0-.13,0-.18,0-7,0-14,0-21,0-.41.19-.54.5-.68l5.84-2.65c.64-.29,1.16-.69,1.14-1.46S85.31,40.76,84.69,40.48ZM62.82,72.55a14,14,0,0,1-6.08,3.23,43,43,0,0,1-10.45,1.5,67.06,67.06,0,0,1-12.74-.54A23.79,23.79,0,0,1,25,74.1,12,12,0,0,1,23,72.53a4.2,4.2,0,0,1-1.36-3.28c.06-5.24,0-10.47,0-15.71v-.81l.76.32q9.76,4.43,19.51,8.86a2.24,2.24,0,0,0,2.06,0l19.45-8.83.78-.33v.9c0,5.25,0,10.51,0,15.77A4.15,4.15,0,0,1,62.82,72.55ZM80.17,42.27,43.49,59a1.21,1.21,0,0,1-1.14,0Q23.93,50.6,5.48,42.21l-.64-.31,3.47-1.59q17-7.74,33.95-15.48a1.34,1.34,0,0,1,1.26,0L80.14,41.52c.22.1.44.22.75.38C80.59,42.05,80.39,42.17,80.17,42.27Z"/><rect x="40.63" width="2.37" height="14.14"/><rect x="10.62" y="4.76" width="2.37" height="14.14" transform="translate(-4.91 11.82) rotate(-45)"/><rect x="68.35" y="10.65" width="14.14" height="2.37" transform="translate(13.72 56.8) rotate(-45)"/></g></g></svg>