<svg xmlns="http://www.w3.org/2000/svg" viewBox="0 0 69.48 76.6"><title>icon-donate-5</title><g id="Layer_2" data-name="Layer 2"><g id="Layer_1-2" data-name="Layer 1"><g id="Cdchhv"><path d="M24.53,52.09v24.5H22.14V50.75c0-1.26-.36-1.63-1.62-1.63h-.41c-1.14,0-1.56.41-1.56,1.55V76.59H16.17V51.16a6.92,6.92,0,0,0-2.54,1.74,13.23,13.23,0,0,0-2,2.69c-3,5.93-5.9,11.89-8.86,17.84a3.32,3.32,0,0,0-.4,1.77c0,.44,0,.89,0,1.38H0c.07-1.25-.19-2.53.42-3.76,3.06-6.15,6.09-12.3,9.14-18.45a6.88,6.88,0,0,1,.81-1.32A3,3,0,0,0,11,51.61,16.54,16.54,0,0,1,22.6,37.91l.44-.15.12-.06c-.34-.63-.71-1.24-1-1.89A12.46,12.46,0,0,1,21,30.51c0-.39-.11-.53-.52-.64a2.25,2.25,0,0,1-1.21-.69c-2.37-3.3-4.09-6.87-4.13-11a10.55,10.55,0,0,1,2.15-6.57,33.56,33.56,0,0,1,10.21-9.5,14.09,14.09,0,0,1,14.2-.31,25.06,25.06,0,0,1,7.78,6,14.3,14.3,0,0,1,2.68,14.83A22.1,22.1,0,0,1,51,25,2.76,2.76,0,0,1,48.49,27c0,1,0,1.94,0,2.88a13,13,0,0,1-.84,5.06c-.38,1-.87,1.87-1.33,2.83.48.17,1,.33,1.52.55A16.54,16.54,0,0,1,58.54,51.91a2.63,2.63,0,0,0,.33.84c.56,1,1.19,2,1.71,3.06,2.74,5.49,5.44,11,8.19,16.5a5.57,5.57,0,0,1,.69,3c0,.41,0,.82,0,1.27h-2.4c0-.63,0-1.24,0-1.86a2.46,2.46,0,0,0-.21-.88Q62.28,64.63,57.7,55.4a9.44,9.44,0,0,0-3.8-3.95V76.6H51.49V50.75c0-1.25-.38-1.63-1.64-1.63h-.46c-1.07,0-1.5.43-1.5,1.51v26H45.51V51.31L34.69,61.91,24.66,52ZM42.9,15.87a7.57,7.57,0,0,1-4.66,3,24.82,24.82,0,0,1-7,.35,18.13,18.13,0,0,0-3.9.16A4.61,4.61,0,0,0,23.37,24c0,2.05,0,4.1,0,6.15a13.55,13.55,0,0,0,.18,2.11,11,11,0,0,0,9.19,8.92,11.29,11.29,0,0,0,9.15-2.25,10.39,10.39,0,0,0,4-6.92,38.22,38.22,0,0,0,.19-4.79,47.76,47.76,0,0,0-.22-5.35A10.53,10.53,0,0,0,42.9,15.87Zm5.6,8.55c.11-.13.16-.17.19-.22,2.72-4.59,2.9-10.11-.79-14.6a22.93,22.93,0,0,0-8.21-6.12,11.14,11.14,0,0,0-5.58-1A13.89,13.89,0,0,0,27.28,5a35.51,35.51,0,0,0-7.83,7.6,9.09,9.09,0,0,0-1.67,8.14,20.7,20.7,0,0,0,2.93,6.45,1.53,1.53,0,0,0,.19.15,31.52,31.52,0,0,1,0-3.77,7.19,7.19,0,0,1,3.72-5.8,9.9,9.9,0,0,1,5.1-1.05c1.58,0,3.16.18,4.74.17a10.07,10.07,0,0,0,5.05-1.08,3.29,3.29,0,0,0,1.67-3.58c0-.14,0-.28-.07-.55C46.25,14.45,48.36,18.82,48.5,24.42ZM30.21,43.05A11.77,11.77,0,0,1,25,49l9.71,9.5C38,55.35,41.19,52.2,44.44,49a11.64,11.64,0,0,1-5.21-5.95A15.08,15.08,0,0,1,30.21,43.05ZM13.87,49.6a17.31,17.31,0,0,1,1.55-.78,5.71,5.71,0,0,0,2.06-1.25,5.09,5.09,0,0,1,5.12-.42.71.71,0,0,0,.88,0c.74-.55,1.54-1,2.25-1.63a7.06,7.06,0,0,0,2.14-3,.46.46,0,0,0-.21-.63c-.85-.58-1.65-1.23-2.49-1.83a.84.84,0,0,0-.63-.15,14.29,14.29,0,0,0-9.07,6.24A12.07,12.07,0,0,0,13.87,49.6Zm27.57-7.36a13.72,13.72,0,0,0,.78,1.52A10.68,10.68,0,0,0,46,47.16c.47.28.87.47,1.35,0a1.42,1.42,0,0,1,.8-.32,20.32,20.32,0,0,1,2.21-.12,3.23,3.23,0,0,1,2.7,1.38c.61.85,1.66.83,2.38,1.5,0-.15,0-.17,0-.18a14.31,14.31,0,0,0-10.76-9.59.59.59,0,0,0-.41.13C43.41,40.69,42.49,41.42,41.44,42.24Z"/><path d="M35.91,65.91c0,.2,0,.41,0,.61a1.19,1.19,0,0,1-2.38.08,8.65,8.65,0,0,1,0-1.44,1.19,1.19,0,0,1,2.38.08C35.92,65.46,35.91,65.68,35.91,65.91Z"/><path d="M35.9,71.92c0,.19,0,.38,0,.56a1.17,1.17,0,0,1-1.12,1.18,1.19,1.19,0,0,1-1.25-1.06,11.69,11.69,0,0,1,0-1.45,1.18,1.18,0,0,1,1.23-1.07,1.17,1.17,0,0,1,1.14,1.17C35.91,71.47,35.9,71.69,35.9,71.92Z"/></g></g></g></svg>