<svg xmlns="http://www.w3.org/2000/svg" viewBox="0 0 73.5 73.51"><title>icon-donate-20</title><g id="Layer_2" data-name="Layer 2"><g id="Layer_1-2" data-name="Layer 1"><path d="M73.5,1.47C73.5.2,73.3,0,72,0H23.09c-1.27,0-1.48.21-1.48,1.47V72.05c0,1.28.18,1.45,1.47,1.45H72c1.3,0,1.46-.16,1.46-1.45V1.47Zm-3.19.4L46.66,25.71l-22-23.84ZM23.48,3.35,45.33,27l-.48.52c-1.41,1.42-2.85,2.82-4.23,4.26a7.39,7.39,0,0,0-.07,9.93c1.57,1.67,3.22,3.25,4.84,4.88l.5.52L23.48,70.33ZM24.8,71.62c7.5-7.77,14.92-15.47,22.41-23.25L70.28,71.62Zm46.82-1.51-.54-.52L42.4,41a5.51,5.51,0,0,1-1.53-6.11A5.17,5.17,0,0,1,42,32.94Q56.67,18.29,71.32,3.69l.3-.26Z"/><path d="M16.73,14.06c-2-4.2-4.07-8.39-6.1-12.59A2.22,2.22,0,0,0,8.52,0,2.25,2.25,0,0,0,6.41,1.46C4.4,5.67,2.35,9.86.34,14.07A3.47,3.47,0,0,0,0,15.48Q0,28.59,0,41.69T0,68a7.55,7.55,0,0,0,.16,1.72A4.79,4.79,0,0,0,4.9,73.48c2.41.06,4.83,0,7.25,0A5,5,0,0,0,17.07,68q0-26.29,0-52.6A3.23,3.23,0,0,0,16.73,14.06ZM8.15,2.13c.21-.4.55-.42.74,0C9.68,3.7,10.44,5.32,11.24,7H5.8C6.61,5.32,7.37,3.72,8.15,2.13ZM2.86,13c.59-1.23,1.2-2.44,1.77-3.68a.7.7,0,0,1,.74-.48c2.11,0,4.21,0,6.32,0a.81.81,0,0,1,.62.34c.82,1.61,1.6,3.25,2.39,4.88a1.31,1.31,0,0,1,.07.27H2.22C2.44,13.87,2.65,13.43,2.86,13Zm-1,3.29H15.17V57.7H1.88Zm0,43.35H15.17v4H1.86ZM14.44,70.53a2.73,2.73,0,0,1-2.07,1.1c-2.54,0-5.08.07-7.62,0A3.06,3.06,0,0,1,1.87,68.8a5.08,5.08,0,0,1,0-.68v-2.6H15.23C15,67.22,15.68,69,14.44,70.53Z"/><path d="M57.68,26.21c-5.7.34-10.31,5.28-10,10.73A10.46,10.46,0,0,0,58.93,47.32a10.59,10.59,0,0,0,9.87-11.5A10.72,10.72,0,0,0,57.68,26.21ZM58.2,45.5A8.74,8.74,0,0,1,58.28,28,8.74,8.74,0,1,1,58.2,45.5Z"/><path d="M61.41,33.16a3.21,3.21,0,0,0-3.26,1.59,5.68,5.68,0,0,0-.62,2.16,1.75,1.75,0,0,1-2.6,1.4,1.74,1.74,0,0,1,.8-3.23c.67-.1,1.05-.5,1-1a1,1,0,0,0-1.2-.78,3.45,3.45,0,0,0-3,2.14.54.54,0,0,1-.58.41.9.9,0,0,0-.11,1.79c.42,0,.52.26.66.58a3.5,3.5,0,0,0,5,1.72,3.46,3.46,0,0,0,1.79-3.06,1.73,1.73,0,1,1,3.46-.12,1.72,1.72,0,0,1-1.56,1.7c-.79.12-1.1.42-1.06,1s.42.85,1.31.82a3.41,3.41,0,0,0,2.79-2c.17-.35.3-.6.76-.63A.89.89,0,0,0,65,35.82c-.4,0-.5-.2-.64-.51A3.39,3.39,0,0,0,61.41,33.16Z"/></g></g></svg>