<svg xmlns="http://www.w3.org/2000/svg" viewBox="0 0 216.1 165.27"><defs><style>.cls-1{fill:#000;}</style></defs><title>logo-primary</title><g id="Layer_2" data-name="Layer 2"><g id="Layer_1-2" data-name="Layer 1"><path class="cls-1" d="M187.31,53.62c.28.12,1.35.6,1.66.72a.47.47,0,0,0,.68-.28,20.22,20.22,0,1,0-37.71-1.47c.1.31.27.52.63.35l1.57-.73c.43-.22.37-.39.24-.74A17.53,17.53,0,1,1,187.15,53,.43.43,0,0,0,187.31,53.62Z"/><path class="cls-1" d="M191.88,55.61l2.26,1c.31.13.51.07.67-.3a25.46,25.46,0,0,0,2.13-10.26A25.88,25.88,0,1,0,146.8,55c.06.17.19.51.64.31s1.86-.87,2.24-1.06a.45.45,0,0,0,.24-.65,22.18,22.18,0,0,1-1.31-7.55,22.46,22.46,0,1,1,44.91,0A22.19,22.19,0,0,1,191.67,55,.42.42,0,0,0,191.88,55.61Z"/><path class="cls-1" d="M140.45,58.54c.5-.25,3.54-1.66,4.06-1.89s.31-.65.24-.88A27.8,27.8,0,0,1,143,46.06a28.06,28.06,0,1,1,53.86,11,.57.57,0,0,0,.32.84c.48.22,3.44,1.52,3.85,1.68s.7.15,1-.44a33.61,33.61,0,1,0-64.54-13.12,33.17,33.17,0,0,0,2.26,12.08C139.8,58.35,140,58.75,140.45,58.54Z"/><path class="cls-1" d="M174.7,35.16a3.61,3.61,0,1,0-3.61,3.59A3.61,3.61,0,0,0,174.7,35.16Z"/><path class="cls-1" d="M169.76,57.61h2.65a1.26,1.26,0,0,0,1.26-1.27v-7.9a5.53,5.53,0,0,1,1.44-3L182.55,38a1.28,1.28,0,0,0,0-1.81l-1.35-1.36a1.28,1.28,0,0,0-1.81,0l-6.71,6.73a2,2,0,0,1-1.59.7,1.89,1.89,0,0,1-1.59-.7l-6.72-6.73a1.27,1.27,0,0,0-1.8,0l-1.37,1.36a1.28,1.28,0,0,0,0,1.81l7.45,7.43a5.45,5.45,0,0,1,1.43,3v7.9A1.27,1.27,0,0,0,169.76,57.61Z"/><path class="cls-1" d="M195.86,60.41c-1.26.47-3.61,2.79-4.67,3.73l-.29,0A36.72,36.72,0,0,0,193.32,61c1.28-2.13-1.14-4.13-3.79-2.61a40.42,40.42,0,0,0-3.52,3l-.25.07a35.46,35.46,0,0,0,2.26-3c1.17-1.72-1.27-3.35-3.37-2.08a39.56,39.56,0,0,0-3.94,3.08l-.22,0c.33-.32,1.17-1.31,1.48-1.65,1.24-1.4-.53-3-2.4-2s-4.38,3.49-7.21,5.3c1.31.71,3.62.82,7.28,2.38s4.85,5.21,2.45,8.09c-2.21,2.66-5.58,1.77-8.47.86-3.37-1-4.56-2.14-8.61-3.55-2.65-.92-3.73-.91-3.68-1.66s2.33-.35,4.47.43c5.94,2.15,13.83,7,15.76,1.77,1.54-4.15-5.31-6-7.93-6.45-3.65-.71-6.16-3.38-9.32-5.08-4.78-2.58-8.45-2.64-11.18-2.15-2.93.52-7.11,2.92-9.64,4.44-1.76,1-1.63,2.63.08,5.07a33.57,33.57,0,0,0,56.06-1.61C201,61.58,198.88,59.34,195.86,60.41Z"/><path class="cls-1" d="M101.79,58.83h.66s3.73,13.06,5.69,18.54l-.29,1.06c-.62,2-1.71,3-3.43,3-.41,0-2.71-.35-2.71-.35-1.3-.11-1.65.44-1.79.91a7.83,7.83,0,0,0-.39,1.55c0,1,3.46,2,5.26,2a5.8,5.8,0,0,0,5.64-3.88c1.37-3.38,7-22.84,7-22.84h.64c1.28-.23,1.74-1,1.74-2.94,0-.7-.1-.77-.67-.77h-4.66c-.45,0-.49.09-.63.55l-3.89,15-4-15c-.12-.46-.18-.53-.62-.55H100.7c-.57,0-.67.07-.67.77C100,57.85,100.51,58.61,101.79,58.83Z"/><path class="cls-1" d="M66.17,48.51l-4,19.3-3-19.44c-.08-.49-.09-.54-.57-.54H53c-.59,0-.68.06-.68.79,0,2.13.52,2.92,2,3.09l.58,0,4.35,23.91c.15.56.21.67.73.67h3.77c.61,0,.63,0,.73-.67l3.76-18.59,3.15,18.61c.13.62.13.65.74.65H76c.5,0,.58-.11.71-.67l4.94-23.93.55,0c1.52-.17,2-1,2-3.09,0-.68-.09-.76-.56-.79H78.07c-.49,0-.5.05-.58.54L74.35,67.81,70.57,48.47c-.1-.52-.17-.64-.77-.64H67.25C66.32,47.83,66.28,48,66.17,48.51Z"/><path class="cls-1" d="M97.69,68.78V61.25c0-4.74-2.06-6.84-6.74-6.84-3.26,0-6.71,1.4-6.71,2.28a8.13,8.13,0,0,0,.37,1.44c.1.27.31.92,1.69.82.56,0,3-.5,4-.5,2.65,0,2.91,1.55,2.91,3.36v1.5c-3.3,0-10.42,0-10.42,7.21,0,4,2.23,6.55,5.85,6.55a6.18,6.18,0,0,0,4.93-2.42l.31-.35.1.55c.17.88.33,1.48,1,1.48h4.8c.59,0,.67,0,.67-.74,0-2.14-.51-2.9-2.29-3A13.35,13.35,0,0,1,97.69,68.78Zm-4.52,2.81A4.46,4.46,0,0,1,90,73.32a2.9,2.9,0,0,1-2.77-3.1c0-3.93,4.64-3.69,5.91-3.6Z"/><path class="cls-1" d="M58.69,37.32c-2,0-2.6.71-2.6,3,0,.69.09.75.67.75h9.59c.56,0,.67-.06.67-.75,0-2.28-.65-3-2.61-3l-.51,0v-17c0-.42,0-.46-.42-.46H56.77c-.58,0-.65,0-.65.74,0,2.31.61,3,2.6,3h.48V37.3Z"/><path class="cls-1" d="M61.5,17.94a3,3,0,0,0,2.8-3.06,2.83,2.83,0,1,0-5.65,0A3,3,0,0,0,61.5,17.94Z"/><path class="cls-1" d="M11.06,17.2h.12V31.12c0,7.5,2.78,10.71,9.28,10.71s9.3-3.21,9.3-10.71V17.2h.12c2,0,2.68-.76,2.68-3.12,0-.69-.08-.76-.67-.76H22.65c-.53,0-.6.09-.66.4l0,.36c0,2.36.64,3.1,2.64,3.12h.13V31.12c0,2.67,0,6.3-4.28,6.3-4,0-4.27-2.86-4.27-6.3V17.2h.13c2,0,2.64-.76,2.64-3.12l0-.44c-.06-.25-.14-.32-.65-.32H9.06c-.59,0-.69.07-.69.76C8.37,16.47,9,17.2,11.06,17.2Z"/><path class="cls-1" d="M35.52,23.63A11.9,11.9,0,0,1,36,27.48v9.84c-2,0-2.55.73-2.55,3,0,.69.1.75.67.75h6.17c.38,0,.4-.06.4-.46V25.27a5.21,5.21,0,0,1,3.49-1.87c2.34,0,2.34,2.67,2.34,3.81V40.62c0,.4,0,.46.41.46H53c.56,0,.66-.06.66-.75,0-2.25-.63-3-2.53-3V25.86c0-4.64-1.52-6.73-4.94-6.73-3,0-4.74,1.78-6,3.13-.12-.49-.21-.88-.21-.88-.21-.93-.39-1.5-1-1.5H33.79c-.57,0-.66,0-.66.74C33.13,22.8,33.68,23.58,35.52,23.63Z"/><path class="cls-1" d="M70.27,23.63H71v9.94c0,4,0,8.26,4.91,8.26,2.74,0,5-.72,5-1.31,0-.11-.17-.91-.26-1.31-.38-1.6-.54-2.18-3.44-1.82a1.1,1.1,0,0,1-.93-.27c-.56-.57-.56-1.82-.56-2.82V23.63h2.61c2,0,2.6-.7,2.6-3,0-.7-.09-.74-.66-.74H75.72v-6c0-.57,0-.6-.26-.6s-1.17.12-1.65.19A3.37,3.37,0,0,0,71,17.18v2.7H68.34c-.57,0-.66,0-.66.74C67.68,22.93,68.29,23.63,70.27,23.63Z"/><path class="cls-1" d="M91.26,41.83c3.17,0,6.85-1.5,6.85-2.43a7.78,7.78,0,0,0-.37-1.51C97.6,37.42,97.32,37,96,37c-1,.05-2.69.53-4.22.53-2.93,0-4.42-1.83-4.44-5.74H98c.63,0,.76-.16.76-.94,0-7.78-2.6-11.73-7.69-11.73s-8.42,4.64-8.42,11.56C82.63,39.88,87.32,41.83,91.26,41.83ZM87.52,27.7c.13-1.45.42-4.81,3.43-4.81s3,3.43,3,5.17H87.49Z"/><path class="cls-1" d="M107.63,41.83a8.13,8.13,0,0,0,5.56-2.46l.27.91c.2.72.24.8.81.8h5.44c.56,0,.67-.06.67-.75,0-2.27-.6-3-2.69-3a11.58,11.58,0,0,1-.43-3.79V12.39c0-.4,0-.46-.42-.46h-6.18c-.57,0-.68.06-.68.74,0,2.23.6,3,2.45,3h.13v4.89l-.38-.27a5.72,5.72,0,0,0-3.74-1.17c-4.82,0-7.38,4.23-7.38,12.22C101.06,38.1,103.39,41.83,107.63,41.83Zm1.8-18.64a5.21,5.21,0,0,1,3.13.93v12a4,4,0,0,1-3.37,1.62c-2.86,0-3.42-2.62-3.42-7.17C105.77,25.79,106.36,23.19,109.43,23.19Z"/><path class="cls-1" d="M203.2,84.67h.45V83.36h.46l.79,1.31h.53l-.79-1.32a.76.76,0,0,0,.71-.81c0-.57-.34-.85-1-.85H203.2Zm.45-2.6h.6c.47,0,.65.14.65.44s-.21.48-.76.48h-.49Z"/><path class="cls-1" d="M201.6,83.15a2.57,2.57,0,1,0,2.56-2.52A2.55,2.55,0,0,0,201.6,83.15Zm4.63,0A2.07,2.07,0,1,1,204.16,81,2.07,2.07,0,0,1,206.23,83.15Z"/><path class="cls-1" d="M216.1,0H.13l0,93.11H216ZM127,91.26H2V1.86H127Zm87.28,0H128.76l.06-89.4h85.43Z"/><polygon class="cls-1" points="9.27 119.6 4.67 104.24 0 104.24 7.08 124.67 11.47 124.67 18.59 104.24 13.9 104.24 9.27 119.6"/><path class="cls-1" d="M26,115.4a8.84,8.84,0,0,0-5.17,1.3A4.3,4.3,0,0,0,19,120.4a4.16,4.16,0,0,0,1.47,3.26A5.39,5.39,0,0,0,24.15,125,4.9,4.9,0,0,0,28,123.31a4.65,4.65,0,0,0,.41,1.36h4.1v-.24a7.17,7.17,0,0,1-.61-3.27v-6.58a5,5,0,0,0-1.64-4,6.64,6.64,0,0,0-4.46-1.41,8.32,8.32,0,0,0-3.34.64,5.37,5.37,0,0,0-2.3,1.76,4.08,4.08,0,0,0-.81,2.44h4.05A1.68,1.68,0,0,1,24,112.7a2.43,2.43,0,0,1,1.6-.49,2.13,2.13,0,0,1,1.71.63,2.52,2.52,0,0,1,.54,1.69v.87Zm1.87,5a2.72,2.72,0,0,1-1.13,1.07,3.53,3.53,0,0,1-1.65.4,2.11,2.11,0,0,1-1.46-.49,1.62,1.62,0,0,1-.53-1.25v-.24q.2-2.1,3.24-2.1h1.52Z"/><rect class="cls-1" x="35.21" y="103.12" width="4.07" height="21.55"/><rect class="cls-1" x="42.82" y="103.12" width="4.07" height="21.55"/><path class="cls-1" d="M60.67,124.23a6.18,6.18,0,0,0,2.47-2l-2-2.23a4.38,4.38,0,0,1-3.66,1.7,3.57,3.57,0,0,1-2.5-.9,3.76,3.76,0,0,1-1.19-2.38h9.67v-1.66a8,8,0,0,0-1.79-5.57,6.33,6.33,0,0,0-4.9-2,7,7,0,0,0-3.7,1,6.5,6.5,0,0,0-2.5,2.78,9.17,9.17,0,0,0-.89,4.09v.39a7.28,7.28,0,0,0,2.1,5.46,7.44,7.44,0,0,0,5.44,2A8.13,8.13,0,0,0,60.67,124.23ZM54.8,113.3a2.51,2.51,0,0,1,2-.82,2.61,2.61,0,0,1,2,.74,3,3,0,0,1,.72,2.09v.32H53.84A4.2,4.2,0,0,1,54.8,113.3Z"/><path class="cls-1" d="M72,127.82l.34-.8,6.1-17.53H74.05l-2.81,9.44-2.82-9.44H64.06l5.32,15.22L68.9,126a2.25,2.25,0,0,1-.89,1.16,3.28,3.28,0,0,1-1.72.35h-.62v3.07a6.34,6.34,0,0,0,1.8.27A4.62,4.62,0,0,0,72,127.82Z"/><path class="cls-1" d="M99,122.84a8,8,0,0,0,2-5.61l0-1a7.51,7.51,0,0,0-2.17-5.11,6.92,6.92,0,0,0-5-1.88,7.28,7.28,0,0,0-3.8,1,6.36,6.36,0,0,0-2.5,2.73,9,9,0,0,0-.87,4v.18a8,8,0,0,0,2,5.72,7.55,7.55,0,0,0,10.47,0Zm-7.56-2.31a5.58,5.58,0,0,1-.82-3.3,6.24,6.24,0,0,1,.82-3.59,2.65,2.65,0,0,1,2.3-1.16A2.72,2.72,0,0,1,96,113.64a5.65,5.65,0,0,1,.82,3.29,6.24,6.24,0,0,1-.82,3.62,2.72,2.72,0,0,1-2.31,1.13A2.67,2.67,0,0,1,91.39,120.53Z"/><path class="cls-1" d="M110.86,106.12a5.39,5.39,0,0,1,1.23.13l0-3.14a9.26,9.26,0,0,0-2.06-.28,5.65,5.65,0,0,0-4.1,1.41,5.23,5.23,0,0,0-1.47,4v1.29h-2.26v3h2.26v12.21h4.07V112.46h3v-3h-3v-1.22C108.57,106.84,109.33,106.12,110.86,106.12Z"/><path class="cls-1" d="M126,125a8.2,8.2,0,0,0,2.46-.37v-3.07a6.19,6.19,0,0,1-1.2.1,1.58,1.58,0,0,1-1.23-.37,1.76,1.76,0,0,1-.32-1.2v-7.58h2.59v-3H125.7v-3.73h-4.06v3.73h-2.21v3h2.21v8.18Q121.73,124.95,126,125Z"/><path class="cls-1" d="M134.51,113.88a2.74,2.74,0,0,1,2.58-1.37,2.37,2.37,0,0,1,1.86.62,2.8,2.8,0,0,1,.56,1.93v9.61h4.06V115q-.07-5.74-5-5.74a5,5,0,0,0-4.05,1.94v-8h-4.06v21.55h4.06Z"/><path class="cls-1" d="M153.16,109.21a7,7,0,0,0-3.69,1A6.52,6.52,0,0,0,147,113a9.17,9.17,0,0,0-.88,4.09v.39a7.28,7.28,0,0,0,2.1,5.46,7.4,7.4,0,0,0,5.43,2,8.13,8.13,0,0,0,3.45-.72,6.18,6.18,0,0,0,2.47-2l-2-2.23a4.38,4.38,0,0,1-3.66,1.7,3.59,3.59,0,0,1-2.51-.9,3.75,3.75,0,0,1-1.18-2.38h9.66v-1.66a8,8,0,0,0-1.79-5.57A6.31,6.31,0,0,0,153.16,109.21Zm2.71,6.42h-5.64a4.2,4.2,0,0,1,1-2.33,2.52,2.52,0,0,1,2-.82,2.59,2.59,0,0,1,2,.74,3,3,0,0,1,.73,2.09Z"/><path class="cls-1" d="M174.41,108a3.85,3.85,0,0,1,2.4-.65,3.66,3.66,0,0,1,2.48.77,2.77,2.77,0,0,1,.89,2.19h4.21a5.9,5.9,0,0,0-.95-3.29,6.16,6.16,0,0,0-2.66-2.23,9.15,9.15,0,0,0-3.9-.8,10.18,10.18,0,0,0-3.92.73,6.17,6.17,0,0,0-2.68,2,4.93,4.93,0,0,0-.93,3c0,2.13,1.16,3.81,3.48,5.07a21,21,0,0,0,3.46,1.39,10.79,10.79,0,0,1,3,1.35,2.15,2.15,0,0,1,.84,1.83,2,2,0,0,1-.84,1.7,3.9,3.9,0,0,1-2.34.61c-2.69,0-4-1.12-4-3.38h-4.22a6.11,6.11,0,0,0,1,3.48,6.88,6.88,0,0,0,3,2.37A10.5,10.5,0,0,0,177,125a8.76,8.76,0,0,0,5.4-1.51,4.9,4.9,0,0,0,2-4.16,5.3,5.3,0,0,0-1.65-4,12.63,12.63,0,0,0-5.23-2.68,11.55,11.55,0,0,1-2.95-1.26,2,2,0,0,1-1-1.67A2.05,2.05,0,0,1,174.41,108Z"/><path class="cls-1" d="M195.92,120.25a3,3,0,0,1-2.84,1.43q-2.16,0-2.16-2.37v-9.82h-4v10a6,6,0,0,0,1.31,4.11,4.82,4.82,0,0,0,3.72,1.4,5.09,5.09,0,0,0,4.16-1.83l.11,1.55H200V109.49h-4.06Z"/><path class="cls-1" d="M211.26,109.21a5.31,5.31,0,0,0-4.36,2l-.13-1.75H203v15.18h4V114a2.79,2.79,0,0,1,2.57-1.45,2.48,2.48,0,0,1,1.86.58A2.6,2.6,0,0,1,212,115v9.71h4.05v-9.81a6.56,6.56,0,0,0-1.21-4.23A4.38,4.38,0,0,0,211.26,109.21Z"/><path class="cls-1" d="M13,152.31Q12.9,156,9.36,156a3.69,3.69,0,0,1-2.66-.92,3.89,3.89,0,0,1-1-2.92V138.72H1.53v13.6a6.77,6.77,0,0,0,2.15,5.21,8.17,8.17,0,0,0,5.68,1.89,8.09,8.09,0,0,0,5.73-1.95,6.91,6.91,0,0,0,2.09-5.3V138.72H13Z"/><path class="cls-1" d="M28.59,143.68a5.27,5.27,0,0,0-4.36,2L24.1,144H20.28v15.18h4.06v-10.7A2.78,2.78,0,0,1,26.9,147a2.51,2.51,0,0,1,1.87.58,2.65,2.65,0,0,1,.56,1.87v9.71h4.05v-9.8a6.59,6.59,0,0,0-1.2-4.24A4.42,4.42,0,0,0,28.59,143.68Z"/><rect class="cls-1" x="36.67" y="143.96" width="4.07" height="15.18"/><path class="cls-1" d="M38.7,138a2.3,2.3,0,0,0-1.66.58,2.16,2.16,0,0,0,0,3,2.6,2.6,0,0,0,3.3,0A2,2,0,0,0,41,140a2,2,0,0,0-.61-1.51A2.33,2.33,0,0,0,38.7,138Z"/><path class="cls-1" d="M49.25,155.72a1.81,1.81,0,0,1-.32-1.21v-7.57h2.59v-3H48.93v-3.73H44.87V144H42.66v3h2.21v8.18q.09,4.31,4.35,4.3a8.52,8.52,0,0,0,2.46-.36V156a6.19,6.19,0,0,1-1.2.1A1.63,1.63,0,0,1,49.25,155.72Z"/><path class="cls-1" d="M60.32,143.68a7,7,0,0,0-3.7,1,6.47,6.47,0,0,0-2.5,2.77,9.2,9.2,0,0,0-.89,4.09v.4a7.25,7.25,0,0,0,2.1,5.45,7.44,7.44,0,0,0,5.44,2,8.13,8.13,0,0,0,3.45-.72,6,6,0,0,0,2.46-2l-2-2.23A4.38,4.38,0,0,1,61,156.15a3.57,3.57,0,0,1-2.5-.9,3.73,3.73,0,0,1-1.19-2.38H67v-1.65a8,8,0,0,0-1.79-5.57A6.3,6.3,0,0,0,60.32,143.68Zm2.7,6.43H57.38a4.21,4.21,0,0,1,1-2.34A2.51,2.51,0,0,1,60.3,147a2.61,2.61,0,0,1,2,.74,3,3,0,0,1,.73,2.09Z"/><path class="cls-1" d="M78.28,145.34a4.62,4.62,0,0,0-3.66-1.66,5.14,5.14,0,0,0-4.35,2.11,9.13,9.13,0,0,0-1.59,5.65,9.44,9.44,0,0,0,1.62,5.87,5.14,5.14,0,0,0,4.3,2.11,4.77,4.77,0,0,0,3.9-1.89l.19,1.61h3.66V137.59H78.28Zm0,9.23a2.71,2.71,0,0,1-2.65,1.58A2.43,2.43,0,0,1,73.47,155a6,6,0,0,1-.74-3.27q0-4.76,2.93-4.76a2.66,2.66,0,0,1,2.62,1.59Z"/><polygon class="cls-1" points="108.82 153.25 105.47 138.72 101.91 138.72 98.54 153.22 95.78 138.72 91.58 138.72 96.11 159.14 100.35 159.14 103.67 145.48 107 159.14 111.23 159.14 115.77 138.72 111.57 138.72 108.82 153.25"/><path class="cls-1" d="M129.6,149.05a4.93,4.93,0,0,0-1.65-4,6.64,6.64,0,0,0-4.46-1.41,8.45,8.45,0,0,0-3.33.64,5.33,5.33,0,0,0-2.3,1.76,4,4,0,0,0-.82,2.44h4.06a1.64,1.64,0,0,1,.58-1.34,2.39,2.39,0,0,1,1.6-.5,2.11,2.11,0,0,1,1.71.64,2.49,2.49,0,0,1,.54,1.68v.87h-1.87a8.86,8.86,0,0,0-5.17,1.3,4.3,4.3,0,0,0-1.78,3.71,4.13,4.13,0,0,0,1.46,3.25,5.4,5.4,0,0,0,3.7,1.29,4.93,4.93,0,0,0,3.83-1.64,4.57,4.57,0,0,0,.4,1.36h4.1v-.24a7.18,7.18,0,0,1-.6-3.27Zm-4.07,5.8a2.64,2.64,0,0,1-1.12,1.07,3.48,3.48,0,0,1-1.66.4,2.06,2.06,0,0,1-1.46-.49,1.64,1.64,0,0,1-.53-1.25v-.24q.2-2.1,3.24-2.1h1.52Z"/><path class="cls-1" d="M138.17,153.4,135.35,144H131l5.32,15.22-.48,1.25a2.32,2.32,0,0,1-.89,1.17,3.34,3.34,0,0,1-1.71.35l-.62,0V165a6.27,6.27,0,0,0,1.79.27,4.62,4.62,0,0,0,4.49-3l.34-.8,6.1-17.54H141Z"/></g></g></svg>